{
    "asset" : {
        "generator" : "Khronos glTF Blender I/O v1.5.17",
        "version" : "2.0"
    },
    "scene" : 0,
    "scenes" : [
        {
            "name" : "Scene",
            "nodes" : [
                0,
                1,
                2
            ]
        }
    ],
    "nodes" : [
        {
            "mesh" : 0,
            "name" : "Circle",
            "scale" : [
                53.45527648925781,
                53.45527648925781,
                53.45527648925781
            ],
            "translation" : [
                -0.11977013200521469,
                -10.535762786865234,
                -0.051592715084552765
            ]
        },
        {
            "mesh" : 1,
            "name" : "Cylinder",
            "scale" : [
                27.39776611328125,
                27.39776611328125,
                27.39776611328125
            ],
            "translation" : [
                -0.18124689161777496,
                5.474178314208984,
                -0.07394397258758545
            ]
        },
        {
            "mesh" : 2,
            "name" : "Cylinder.001",
            "scale" : [
                27.39776611328125,
                27.39776611328125,
                27.39776611328125
            ],
            "translation" : [
                -0.18124689161777496,
                5.474178314208984,
                -0.07394397258758545
            ]
        }
    ],
    "materials" : [
        {
            "doubleSided" : true,
            "name" : "Material.003",
            "pbrMetallicRoughness" : {
                "baseColorTexture" : {
                    "index" : 0
                },
                "metallicFactor" : 0,
                "roughnessFactor" : 0.5
            }
        },
        {
            "doubleSided" : true,
            "name" : "Material.002",
            "pbrMetallicRoughness" : {
                "baseColorTexture" : {
                    "index" : 1
                },
                "metallicFactor" : 0,
                "roughnessFactor" : 0.5
            }
        },
        {
            "doubleSided" : true,
            "name" : "Material",
            "pbrMetallicRoughness" : {
                "baseColorTexture" : {
                    "index" : 2
                },
                "metallicFactor" : 0,
                "roughnessFactor" : 0.5
            }
        }
    ],
    "meshes" : [
        {
            "name" : "Circle.001",
            "primitives" : [
                {
                    "attributes" : {
                        "POSITION" : 0,
                        "NORMAL" : 1,
                        "TEXCOORD_0" : 2
                    },
                    "indices" : 3,
                    "material" : 0
                }
            ]
        },
        {
            "name" : "Cylinder.001",
            "primitives" : [
                {
                    "attributes" : {
                        "POSITION" : 4,
                        "NORMAL" : 5,
                        "TEXCOORD_0" : 6
                    },
                    "indices" : 7,
                    "material" : 1
                }
            ]
        },
        {
            "name" : "Cylinder.002",
            "primitives" : [
                {
                    "attributes" : {
                        "POSITION" : 8,
                        "NORMAL" : 9,
                        "TEXCOORD_0" : 10
                    },
                    "indices" : 11,
                    "material" : 2
                }
            ]
        }
    ],
    "textures" : [
        {
            "sampler" : 0,
            "source" : 0
        },
        {
            "sampler" : 0,
            "source" : 0
        },
        {
            "sampler" : 0,
            "source" : 1
        }
    ],
    "images" : [
        {
            "bufferView" : 4,
            "mimeType" : "image/png",
            "name" : "pisin"
        },
        {
            "bufferView" : 13,
            "mimeType" : "image/png",
            "name" : "mocacino"
        }
    ],
    "accessors" : [
        {
            "bufferView" : 0,
            "componentType" : 5126,
            "count" : 511,
            "max" : [
                0.9746266007423401,
                0.006660757586359978,
                0.9746266603469849
            ],
            "min" : [
                -0.9746266603469849,
                -0.11572740972042084,
                -0.9746266603469849
            ],
            "type" : "VEC3"
        },
        {
            "bufferView" : 1,
            "componentType" : 5126,
            "count" : 511,
            "type" : "VEC3"
        },
        {
            "bufferView" : 2,
            "componentType" : 5126,
            "count" : 511,
            "type" : "VEC2"
        },
        {
            "bufferView" : 3,
            "componentType" : 5123,
            "count" : 2400,
            "type" : "SCALAR"
        },
        {
            "bufferView" : 5,
            "componentType" : 5126,
            "count" : 549,
            "max" : [
                1.9040868282318115,
                0.868804395198822,
                1.189170002937317
            ],
            "min" : [
                -1.189170002937317,
                -0.7905938029289246,
                -1.189170002937317
            ],
            "type" : "VEC3"
        },
        {
            "bufferView" : 6,
            "componentType" : 5126,
            "count" : 549,
            "type" : "VEC3"
        },
        {
            "bufferView" : 7,
            "componentType" : 5126,
            "count" : 549,
            "type" : "VEC2"
        },
        {
            "bufferView" : 8,
            "componentType" : 5123,
            "count" : 2238,
            "type" : "SCALAR"
        },
        {
            "bufferView" : 9,
            "componentType" : 5126,
            "count" : 479,
            "max" : [
                1.208559274673462,
                0.9674533605575562,
                1.2085593938827515
            ],
            "min" : [
                -1.208559274673462,
                -0.7824843525886536,
                -1.208559274673462
            ],
            "type" : "VEC3"
        },
        {
            "bufferView" : 10,
            "componentType" : 5126,
            "count" : 479,
            "type" : "VEC3"
        },
        {
            "bufferView" : 11,
            "componentType" : 5126,
            "count" : 479,
            "type" : "VEC2"
        },
        {
            "bufferView" : 12,
            "componentType" : 5123,
            "count" : 2292,
            "type" : "SCALAR"
        }
    ],
    "bufferViews" : [
        {
            "buffer" : 0,
            "byteLength" : 6132,
            "byteOffset" : 0
        },
        {
            "buffer" : 0,
            "byteLength" : 6132,
            "byteOffset" : 6132
        },
        {
            "buffer" : 0,
            "byteLength" : 4088,
            "byteOffset" : 12264
        },
        {
            "buffer" : 0,
            "byteLength" : 4800,
            "byteOffset" : 16352
        },
        {
            "buffer" : 0,
            "byteLength" : 397228,
            "byteOffset" : 21152
        },
        {
            "buffer" : 0,
            "byteLength" : 6588,
            "byteOffset" : 418380
        },
        {
            "buffer" : 0,
            "byteLength" : 6588,
            "byteOffset" : 424968
        },
        {
            "buffer" : 0,
            "byteLength" : 4392,
            "byteOffset" : 431556
        },
        {
            "buffer" : 0,
            "byteLength" : 4476,
            "byteOffset" : 435948
        },
        {
            "buffer" : 0,
            "byteLength" : 5748,
            "byteOffset" : 440424
        },
        {
            "buffer" : 0,
            "byteLength" : 5748,
            "byteOffset" : 446172
        },
        {
            "buffer" : 0,
            "byteLength" : 3832,
            "byteOffset" : 451920
        },
        {
            "buffer" : 0,
            "byteLength" : 4584,
            "byteOffset" : 455752
        },
        {
            "buffer" : 0,
            "byteLength" : 597425,
            "byteOffset" : 460336
        }
    ],
    "samplers" : [
        {
            "magFilter" : 9729,
            "minFilter" : 9987
        }
    ],
    "buffers" : [
        {
            "byteLength" : 1057764,
            "uri" : "data:application/octet-stream;base64,"
        }
    ]
}
