{
    "asset" : {
        "generator" : "Khronos glTF Blender I/O v1.5.17",
        "version" : "2.0"
    },
    "scene" : 0,
    "scenes" : [
        {
            "name" : "Scene",
            "nodes" : [
                0,
                1,
                2,
                3,
                4,
                5,
                6
            ]
        }
    ],
    "nodes" : [
        {
            "name" : "Light",
            "rotation" : [
                0.16907575726509094,
                0.7558803558349609,
                -0.27217137813568115,
                0.570947527885437
            ],
            "translation" : [
                5.262020111083984,
                3.4859633445739746,
                2.1773922443389893
            ]
        },
        {
            "name" : "Camera",
            "rotation" : [
                0.483536034822464,
                0.33687159419059753,
                -0.20870360732078552,
                0.7804827094078064
            ],
            "translation" : [
                7.358891487121582,
                4.958309173583984,
                6.925790786743164
            ]
        },
        {
            "name" : "Empty",
            "rotation" : [
                0.7071068286895752,
                0,
                0,
                0.7071068286895752
            ],
            "scale" : [
                0.4036978483200073,
                0.4036978483200073,
                0.4036979079246521
            ],
            "translation" : [
                0,
                0.5466706156730652,
                -0.11119960248470306
            ]
        },
        {
            "mesh" : 0,
            "name" : "Plane"
        },
        {
            "mesh" : 1,
            "name" : "Circle",
            "scale" : [
                0.6488287448883057,
                0.6488287448883057,
                0.6488287448883057
            ],
            "translation" : [
                0,
                0.10693620145320892,
                0
            ]
        },
        {
            "mesh" : 2,
            "name" : "Cylinder",
            "scale" : [
                0.33254826068878174,
                0.33254826068878174,
                0.33254826068878174
            ],
            "translation" : [
                -0.0007462687790393829,
                0.3012614846229553,
                -0.0002712756395339966
            ]
        },
        {
            "mesh" : 3,
            "name" : "Cylinder.001",
            "scale" : [
                0.33254826068878174,
                0.33254826068878174,
                0.33254826068878174
            ],
            "translation" : [
                -0.0007462687790393829,
                0.3012614846229553,
                -0.0002712756395339966
            ]
        }
    ],
    "materials" : [
        {
            "doubleSided" : true,
            "name" : "Material.003",
            "pbrMetallicRoughness" : {
                "baseColorTexture" : {
                    "index" : 0
                },
                "metallicFactor" : 0,
                "roughnessFactor" : 0.5
            }
        },
        {
            "doubleSided" : true,
            "name" : "Material.002",
            "pbrMetallicRoughness" : {
                "baseColorTexture" : {
                    "index" : 1
                },
                "metallicFactor" : 0,
                "roughnessFactor" : 0.5
            }
        },
        {
            "doubleSided" : true,
            "name" : "Material",
            "pbrMetallicRoughness" : {
                "baseColorTexture" : {
                    "index" : 2
                },
                "metallicFactor" : 0,
                "roughnessFactor" : 0.5
            }
        }
    ],
    "meshes" : [
        {
            "name" : "Plane.001",
            "primitives" : [
                {
                    "attributes" : {
                        "POSITION" : 0,
                        "NORMAL" : 1,
                        "TEXCOORD_0" : 2
                    },
                    "indices" : 3
                }
            ]
        },
        {
            "name" : "Circle.001",
            "primitives" : [
                {
                    "attributes" : {
                        "POSITION" : 4,
                        "NORMAL" : 5,
                        "TEXCOORD_0" : 6
                    },
                    "indices" : 7,
                    "material" : 0
                }
            ]
        },
        {
            "name" : "Cylinder.001",
            "primitives" : [
                {
                    "attributes" : {
                        "POSITION" : 8,
                        "NORMAL" : 9,
                        "TEXCOORD_0" : 10
                    },
                    "indices" : 11,
                    "material" : 1
                }
            ]
        },
        {
            "name" : "Cylinder.002",
            "primitives" : [
                {
                    "attributes" : {
                        "POSITION" : 12,
                        "NORMAL" : 13,
                        "TEXCOORD_0" : 14
                    },
                    "indices" : 15,
                    "material" : 2
                }
            ]
        }
    ],
    "textures" : [
        {
            "sampler" : 0,
            "source" : 0
        },
        {
            "sampler" : 0,
            "source" : 0
        },
        {
            "sampler" : 0,
            "source" : 1
        }
    ],
    "images" : [
        {
            "bufferView" : 8,
            "mimeType" : "image/png",
            "name" : "pisin"
        },
        {
            "bufferView" : 17,
            "mimeType" : "image/png",
            "name" : "mocacino"
        }
    ],
    "accessors" : [
        {
            "bufferView" : 0,
            "componentType" : 5126,
            "count" : 4,
            "max" : [
                1,
                0,
                1
            ],
            "min" : [
                -1,
                0,
                -1
            ],
            "type" : "VEC3"
        },
        {
            "bufferView" : 1,
            "componentType" : 5126,
            "count" : 4,
            "type" : "VEC3"
        },
        {
            "bufferView" : 2,
            "componentType" : 5126,
            "count" : 4,
            "type" : "VEC2"
        },
        {
            "bufferView" : 3,
            "componentType" : 5123,
            "count" : 6,
            "type" : "SCALAR"
        },
        {
            "bufferView" : 4,
            "componentType" : 5126,
            "count" : 511,
            "max" : [
                0.9746266007423401,
                0.006660757586359978,
                0.9746266603469849
            ],
            "min" : [
                -0.9746266603469849,
                -0.11572740972042084,
                -0.9746266603469849
            ],
            "type" : "VEC3"
        },
        {
            "bufferView" : 5,
            "componentType" : 5126,
            "count" : 511,
            "type" : "VEC3"
        },
        {
            "bufferView" : 6,
            "componentType" : 5126,
            "count" : 511,
            "type" : "VEC2"
        },
        {
            "bufferView" : 7,
            "componentType" : 5123,
            "count" : 2400,
            "type" : "SCALAR"
        },
        {
            "bufferView" : 9,
            "componentType" : 5126,
            "count" : 549,
            "max" : [
                1.9040868282318115,
                0.868804395198822,
                1.189170002937317
            ],
            "min" : [
                -1.189170002937317,
                -0.7905938029289246,
                -1.189170002937317
            ],
            "type" : "VEC3"
        },
        {
            "bufferView" : 10,
            "componentType" : 5126,
            "count" : 549,
            "type" : "VEC3"
        },
        {
            "bufferView" : 11,
            "componentType" : 5126,
            "count" : 549,
            "type" : "VEC2"
        },
        {
            "bufferView" : 12,
            "componentType" : 5123,
            "count" : 2238,
            "type" : "SCALAR"
        },
        {
            "bufferView" : 13,
            "componentType" : 5126,
            "count" : 479,
            "max" : [
                1.208559274673462,
                0.9674533605575562,
                1.2085593938827515
            ],
            "min" : [
                -1.208559274673462,
                -0.7824843525886536,
                -1.208559274673462
            ],
            "type" : "VEC3"
        },
        {
            "bufferView" : 14,
            "componentType" : 5126,
            "count" : 479,
            "type" : "VEC3"
        },
        {
            "bufferView" : 15,
            "componentType" : 5126,
            "count" : 479,
            "type" : "VEC2"
        },
        {
            "bufferView" : 16,
            "componentType" : 5123,
            "count" : 2292,
            "type" : "SCALAR"
        }
    ],
    "bufferViews" : [
        {
            "buffer" : 0,
            "byteLength" : 48,
            "byteOffset" : 0
        },
        {
            "buffer" : 0,
            "byteLength" : 48,
            "byteOffset" : 48
        },
        {
            "buffer" : 0,
            "byteLength" : 32,
            "byteOffset" : 96
        },
        {
            "buffer" : 0,
            "byteLength" : 12,
            "byteOffset" : 128
        },
        {
            "buffer" : 0,
            "byteLength" : 6132,
            "byteOffset" : 140
        },
        {
            "buffer" : 0,
            "byteLength" : 6132,
            "byteOffset" : 6272
        },
        {
            "buffer" : 0,
            "byteLength" : 4088,
            "byteOffset" : 12404
        },
        {
            "buffer" : 0,
            "byteLength" : 4800,
            "byteOffset" : 16492
        },
        {
            "buffer" : 0,
            "byteLength" : 397228,
            "byteOffset" : 21292
        },
        {
            "buffer" : 0,
            "byteLength" : 6588,
            "byteOffset" : 418520
        },
        {
            "buffer" : 0,
            "byteLength" : 6588,
            "byteOffset" : 425108
        },
        {
            "buffer" : 0,
            "byteLength" : 4392,
            "byteOffset" : 431696
        },
        {
            "buffer" : 0,
            "byteLength" : 4476,
            "byteOffset" : 436088
        },
        {
            "buffer" : 0,
            "byteLength" : 5748,
            "byteOffset" : 440564
        },
        {
            "buffer" : 0,
            "byteLength" : 5748,
            "byteOffset" : 446312
        },
        {
            "buffer" : 0,
            "byteLength" : 3832,
            "byteOffset" : 452060
        },
        {
            "buffer" : 0,
            "byteLength" : 4584,
            "byteOffset" : 455892
        },
        {
            "buffer" : 0,
            "byteLength" : 597425,
            "byteOffset" : 460476
        }
    ],
    "samplers" : [
        {
            "magFilter" : 9729,
            "minFilter" : 9987
        }
    ],
    "buffers" : [
        {
            "byteLength" : 1057904,
            "uri" : "data:application/octet-stream;base64,"
        }
    ]
}
